<svg xmlns="http://www.w3.org/2000/svg" width="36.759" height="32.81" viewBox="0 0 36.759 32.81">
  <g id="egg_button_4" data-name="egg button 4" transform="translate(0 0)">
    <g id="组_49" data-name="组 49" transform="translate(8.264 32.661)">
      <path id="路径_51" data-name="路径 51" d="M0,0C5.553.979,10.88-2.908,12.068-9.649S10.9-26.016,4.778-27.095s-11.63,7.159-12.818,13.9S-5.553-.979,0,0" fill="#ffb283"/>
    </g>
    <g id="组_50" data-name="组 50" transform="translate(29.413 26.744)">
      <path id="路径_52" data-name="路径 52" d="M0,0C5.523-1.584,8.687-7.443,6.8-14.034S-1.509-28.236-7.6-26.49-15.091-14.89-13.2-8.3-5.523,1.584,0,0" fill="#ffb283"/>
    </g>
    <g id="组_51" data-name="组 51" transform="translate(17.11 21.918)">
      <path id="路径_53" data-name="路径 53" d="M0,0S8.492-5.983,5.94-9.946C3.713-13.406,0-8.637,0-8.637s-3.422-5.221-5.94-1.309C-8.492-5.983,0,0,0,0" fill="#fff"/>
    </g>
  </g>
</svg>
