<svg xmlns="http://www.w3.org/2000/svg" width="34.2" height="36.585" viewBox="0 0 34.2 36.585">
  <g id="egg_button_5" data-name="egg button 5" transform="translate(0 0)">
    <g id="组_69" data-name="组 69" transform="translate(-722.509 -52.004)">
      <g id="组_54" data-name="组 54" transform="translate(-1139.404 715.209) rotate(90)">
        <g id="组_53" data-name="组 53" transform="translate(-654.522 -1861.913)">
          <path id="路径_55" data-name="路径 55" d="M0,0A8.654,8.654,0,0,0,8.683-9.034c0-5.332-3.4-12.4-8.683-12.4s-8.683,7.066-8.683,12.4A8.654,8.654,0,0,0,0,0" fill="#ffb283"/>
        </g>
      </g>
      <g id="组_56" data-name="组 56" transform="translate(728.854 60.925)">
        <path id="路径_57" data-name="路径 57" d="M0,0-5.218,12.4,4.543,3.875Z" fill="#ffb283"/>
      </g>
    </g>
    <g id="组_68" data-name="组 68" transform="translate(-722.509 -52.004)">
      <g id="组_58" data-name="组 58" transform="translate(2623.069 730.642) rotate(90)">
        <g id="组_57" data-name="组 57" transform="translate(-654.695 1866.36)">
          <path id="路径_58" data-name="路径 58" d="M0,0A8.654,8.654,0,0,1,8.683,9.034c0,5.332-3.4,12.4-8.683,12.4s-8.683-7.066-8.683-12.4A8.654,8.654,0,0,1,0,0" fill="#ffb283"/>
        </g>
      </g>
      <g id="组_60" data-name="组 60" transform="translate(750.363 76.185)">
        <path id="路径_60" data-name="路径 60" d="M0,0,5.218,12.4l-9.76-8.529Z" fill="#ffb283"/>
      </g>
    </g>
  </g>
</svg>
