<svg id="menu_C2_-_choose_c_list" data-name="menu C2 - choose c list" xmlns="http://www.w3.org/2000/svg" width="36" height="42" viewBox="0 0 36 42">
  <g id="menu_C2_-_characters" data-name="menu C2 - characters" opacity="0.998">
    <g id="egg_button_2" data-name="egg button 2">
      <g id="组_44" data-name="组 44" transform="translate(7.647 18.672)">
        <path id="路径_46" data-name="路径 46" d="M0,0A7.578,7.578,0,0,0,7.647-7.871c0-4.645-2.992-10.8-7.647-10.8s-7.647,6.156-7.647,10.8A7.578,7.578,0,0,0,0,0" fill="#f8b003"/>
      </g>
      <g id="组_45" data-name="组 45" transform="translate(7.647 41.493)">
        <path id="路径_47" data-name="路径 47" d="M0,0A7.578,7.578,0,0,0,7.647-7.871c0-4.645-2.992-10.8-7.647-10.8s-7.647,6.156-7.647,10.8A7.578,7.578,0,0,0,0,0" fill="#7dbb42"/>
      </g>
      <g id="组_46" data-name="组 46" transform="translate(27.907 18.672)">
        <path id="路径_48" data-name="路径 48" d="M0,0A7.578,7.578,0,0,0,7.647-7.871c0-4.645-2.992-10.8-7.647-10.8s-7.647,6.156-7.647,10.8A7.578,7.578,0,0,0,0,0" fill="#f27081"/>
      </g>
      <g id="组_47" data-name="组 47" transform="translate(27.907 41.493)">
        <path id="路径_49" data-name="路径 49" d="M0,0A7.578,7.578,0,0,0,7.647-7.871c0-4.645-2.992-10.8-7.647-10.8s-7.647,6.156-7.647,10.8A7.578,7.578,0,0,0,0,0" fill="#00bbe3"/>
      </g>
    </g>
  </g>
</svg>
